<?xml version="1.0" encoding="utf-8"?>
<!-- Generator: Adobe Illustrator 24.3.0, SVG Export Plug-In . SVG Version: 6.00 Build 0)  -->
<svg version="1.1" id="Capa_1" xmlns="http://www.w3.org/2000/svg" xmlns:xlink="http://www.w3.org/1999/xlink" x="0px" y="0px"
	 viewBox="0 0 340.3 223.7" style="enable-background:new 0 0 340.3 223.7;" xml:space="preserve">
<style type="text/css">
	.st0{enable-background:new    ;}
	.st1{fill:#00FF33;}
	.st2{fill:#FFFFFF;}
</style>
<g class="st0">
	<path class="st1" d="M-159.8,32.3c22.1,0,37.3,18.6,31.5,40.8c-2.3,9.3-4.7,19.8-7,29.1c-4.7,17.5-18.6,33.8-36.1,38.5
		c8.2,16.3,16.3,32.6,24.5,49c-19.8,0-40.8,0-59.4,0l-23.3-46.6h-36.1l-10.5,46.6h-53.6l28-130.5l18.6,11.7l-31.5-39.6h155V32.3z
		 M-204.1,106.9c7,0,15.2-5.8,16.3-14c1.2-3.5,1.2-7,2.3-10.5c1.2-8.2-3.5-14-10.5-14c-18.6,0-36.1,0-53.6,0l-8.2,38.5
		C-257.7,106.9-204.1,106.9-204.1,106.9z"/>
</g>
<g class="st0">
	<path class="st2" d="M285.4,190.8h-54.8l28-130.5l18.6,11.7l-31.5-39.6h190l-8.2,36.1H311.1l-4.7,24.5H409l-8.2,36.1H298.3
		L285.4,190.8z"/>
</g>
<g class="st0">
	<path class="st1" d="M-73.5,151.2h54.8c3.5,0,7-2.3,8.2-5.8l7-31.5l17.5-81.6h49l-17.5,81.6l-3.5,17.5l-4.7,23.3
		c-4.7,21-24.5,37.3-45.5,37.3h-90.9c-21,0-33.8-16.3-29.1-37.3l4.7-23.3l3.5-17.5l17.5-81.6h49l-17.5,81.6l-3.5,17.5l-3.5,14
		C-79.4,148.8-77,151.2-73.5,151.2z"/>
	<path class="st1" d="M74.5,32.3h50.1l47.8,86.2L191,32.3h49l-33.8,158.5h-50.1l-47.8-86.2l-18.6,86.2h-49L74.5,32.3z"/>
</g>
<g class="st0">
	<path class="st2" d="M448.6,32.3h49l-33.8,158.5h-49L448.6,32.3z"/>
	<path class="st2" d="M670.1,32.3l-8.2,39.6H606l-25.6,118.9h-49L557,71.9h-55.9l8.2-39.6h55.9h49H670.1z"/>
</g>
</svg>
